<svg width="22" height="20" viewBox="0 0 22 20" fill="none" xmlns="http://www.w3.org/2000/svg">
<path d="M1.75 1.25L3.83 1.61L4.793 13.083C4.87 14.02 5.653 14.739 6.593 14.736H17.502C18.399 14.738 19.16 14.078 19.287 13.19L20.236 6.632C20.342 5.899 19.833 5.219 19.101 5.113C19.037 5.104 4.164 5.099 4.164 5.099" stroke="#D7D7D7" stroke-width="2" stroke-linecap="round"/>
<path fill-rule="evenodd" clip-rule="evenodd" d="M12.325 8.79487C12.325 8.35305 12.6831 7.99487 13.125 7.99487H15.898C16.3398 7.99487 16.698 8.35305 16.698 8.79487C16.698 9.2367 16.3398 9.59487 15.898 9.59487H13.125C12.6831 9.59487 12.325 9.2367 12.325 8.79487Z" fill="#D7D7D7"/>
<path fill-rule="evenodd" clip-rule="evenodd" d="M6.50821 18.4994C6.50822 18.4993 6.50823 18.4993 6.50823 18.4993C6.50823 18.4995 6.50823 18.4996 6.50822 18.4996C6.50822 18.4996 6.5082 18.4995 6.50816 18.4993C6.50808 18.4989 6.5079 18.4982 6.50752 18.4973C6.50699 18.496 6.50646 18.4954 6.50621 18.4951C6.50595 18.4949 6.50516 18.4942 6.50347 18.4935C6.50182 18.4928 6.50046 18.4926 6.50006 18.4925C6.50003 18.4925 6.50002 18.4925 6.5 18.4925C6.49998 18.4925 6.49997 18.4925 6.49994 18.4925C6.49954 18.4926 6.49818 18.4928 6.49653 18.4935C6.49484 18.4942 6.49405 18.4949 6.49379 18.4951C6.49354 18.4954 6.49301 18.496 6.49248 18.4973C6.4921 18.4982 6.49192 18.4989 6.49184 18.4993C6.49183 18.4994 6.49181 18.4995 6.49181 18.4995C6.49188 18.5 6.49209 18.5012 6.4927 18.5027C6.49332 18.5042 6.49391 18.5048 6.49413 18.505C6.49436 18.5052 6.49507 18.5059 6.49668 18.5066C6.49824 18.5072 6.49955 18.5074 6.49994 18.5075C6.49997 18.5075 6.49998 18.5075 6.5 18.5075C6.50002 18.5075 6.50003 18.5075 6.50006 18.5075C6.50045 18.5074 6.50176 18.5072 6.50332 18.5066C6.50493 18.5059 6.50564 18.5052 6.50587 18.505C6.50609 18.5048 6.50668 18.5042 6.5073 18.5027C6.50797 18.5011 6.50816 18.4997 6.50821 18.4994ZM5 18.4993C5 17.6728 5.66991 17 6.5 17C7.33009 17 8 17.6728 8 18.4993C8 19.3263 7.33099 20 6.5 20C5.66901 20 5 19.3263 5 18.4993Z" fill="#D7D7D7"/>
<path fill-rule="evenodd" clip-rule="evenodd" d="M17.5075 18.4993C17.5075 18.4993 17.5075 18.4992 17.5075 18.4993C17.5075 18.4989 17.5072 18.4982 17.5068 18.4973C17.5063 18.496 17.5058 18.4954 17.5055 18.4951C17.5053 18.4949 17.5045 18.4942 17.5028 18.4935C17.5011 18.4928 17.4998 18.4926 17.4994 18.4925C17.499 18.4926 17.4978 18.4927 17.4964 18.4933C17.4951 18.4939 17.4945 18.4944 17.4945 18.4945C17.4944 18.4945 17.4939 18.4951 17.4933 18.4964C17.4927 18.4978 17.4926 18.4989 17.4925 18.4993C17.4925 18.4991 17.4925 18.4997 17.4927 18.5007L17.4935 18.5035C17.4942 18.5051 17.4948 18.5056 17.4948 18.5057C17.4949 18.5057 17.4953 18.5062 17.4966 18.5067C17.4978 18.5073 17.4989 18.5074 17.4993 18.5075C17.4993 18.5075 17.4993 18.5075 17.4993 18.5075M16 18.4993C16 17.6728 16.6696 17 17.4993 17C18.3272 17 19 17.671 19 18.4993C19 19.3281 18.3281 20 17.4993 20C16.6687 20 16 19.3263 16 18.4993Z" fill="#D7D7D7"/>
</svg>
