<svg width="20" height="20" viewBox="0 0 20 20" fill="none" xmlns="http://www.w3.org/2000/svg">
<path d="M18.2209 13.143C17.6508 15.6504 15.7018 17.6204 13.2025 18.2251C11.102 18.7334 8.89833 18.7334 6.7979 18.2251C4.29861 17.6204 2.34961 15.6504 1.77943 13.143C1.26999 10.9026 1.39389 8.56477 2.13727 6.39084L2.24771 6.06787C3.06566 3.67585 5.109 1.91013 7.59434 1.44766L8.27493 1.32102C9.41532 1.10881 10.5851 1.10881 11.7255 1.32102L12.406 1.44766C14.8914 1.91013 16.9347 3.67586 17.7527 6.06789L17.8631 6.39084C18.6065 8.56477 18.7304 10.9026 18.2209 13.143Z" stroke="#D7D7D7" stroke-width="2"/>
</svg>
